# xmcd CD database file
#
# Track frame offsets:
#	150
#	10679
#	22923
#	33423
#	45189
#	54995
#	67769
#	79015
#
# Disc length: 1204 seconds
#
# Revision: 0
# Processed by: cddbd v1.5.2PL0 Copyright (c) Steve Scherf et al.
# Submitted via: CDex 1.70beta3
#
DISCID=4804b208
DTITLE=Lucy Ann Polk - Lucy Ann Polk With Dave Pell Octet
DYEAR=1954
DGENRE=Jazz
TTITLE0=It Could Happen To You
TTITLE1=Imagination
TTITLE2=But Beautiful
TTITLE3=Swinging On A Star
TTITLE4=Aren't You Glad You're You
TTITLE5=Darn That Dream
TTITLE6=Polka Dots And Moonbeams
TTITLE7=It's Always You
EXTD=YEAR: 1954
EXTT0=
EXTT1=
EXTT2=
EXTT3=
EXTT4=
EXTT5=
EXTT6=
EXTT7=
PLAYORDER=
